<svg xmlns="http://www.w3.org/2000/svg" xmlns:xlink="http://www.w3.org/1999/xlink" width="1080" zoomAndPan="magnify" viewBox="0 0 810 809.999993" height="1080" preserveAspectRatio="xMidYMid meet" version="1.2"><defs><clipPath id="c949fa1e4c"><path d="M 405 0 C 181.324219 0 0 181.324219 0 405 C 0 628.675781 181.324219 810 405 810 C 628.675781 810 810 628.675781 810 405 C 810 181.324219 628.675781 0 405 0 Z M 405 0 "/></clipPath><filter x="0%" y="0%" width="100%" filterUnits="objectBoundingBox" id="f3d4d71a41" height="100%"><feColorMatrix values="0 0 0 0 1 0 0 0 0 1 0 0 0 0 1 0 0 0 1 0" type="matrix" in="SourceGraphic"/></filter><clipPath id="2ffc96e33f"><path d="M 405 0 C 181.324219 0 0 181.324219 0 405 C 0 628.675781 181.324219 810 405 810 C 628.675781 810 810 628.675781 810 405 C 810 181.324219 628.675781 0 405 0 Z M 405 0 "/></clipPath><clipPath id="a7cd994879"><rect x="0" width="810" y="0" height="810"/></clipPath></defs><g id="8a576957e3"><g clip-rule="nonzero" clip-path="url(#c949fa1e4c)"><rect x="0" width="810" y="0" height="809.999993" style="fill:#ffffff;fill-opacity:1;stroke:none;"/></g><g mask="url(#7e2d013686)" transform="matrix(1,0,0,1,0,0.000000000000039746)"><g clip-path="url(#a7cd994879)"><g clip-rule="nonzero" clip-path="url(#2ffc96e33f)"><rect x="0" width="810" height="810" y="0" style="fill:#ff0000;fill-opacity:1;stroke:none;"/></g></g><mask id="7e2d013686"><g filter="url(#f3d4d71a41)"><rect x="0" width="810" y="0" height="809.999993" style="fill:#000000;fill-opacity:0.08;stroke:none;"/></g></mask></g><path style=" stroke:none;fill-rule:nonzero;fill:#ff0000;fill-opacity:1;" d="M 568.578125 545.203125 L 586.109375 545.203125 Z M 241.328125 465.355469 L 258.859375 465.355469 C 258.859375 458.386719 254.734375 452.078125 248.347656 449.289062 Z M 568.578125 465.355469 L 561.558594 449.289062 C 555.171875 452.078125 551.046875 458.386719 551.046875 465.355469 Z M 492.609375 288.078125 C 492.609375 297.761719 500.457031 305.609375 510.140625 305.609375 C 519.824219 305.609375 527.671875 297.761719 527.671875 288.078125 Z M 282.234375 288.078125 C 282.234375 297.761719 290.082031 305.609375 299.765625 305.609375 C 309.449219 305.609375 317.296875 297.761719 317.296875 288.078125 Z M 288.078125 223.796875 C 213.847656 223.796875 153.671875 283.972656 153.671875 358.203125 L 188.734375 358.203125 C 188.734375 303.335938 233.210938 258.859375 288.078125 258.859375 Z M 521.828125 258.859375 C 576.695312 258.859375 621.171875 303.335938 621.171875 358.203125 L 656.234375 358.203125 C 656.234375 283.972656 596.058594 223.796875 521.828125 223.796875 Z M 475.078125 621.171875 L 334.828125 621.171875 L 334.828125 656.234375 L 475.078125 656.234375 Z M 334.828125 621.171875 C 312.292969 621.171875 297.15625 621.132812 285.867188 619.617188 C 275.078125 618.164062 270.464844 615.660156 267.417969 612.613281 L 242.625 637.40625 C 253.269531 648.054688 266.519531 652.394531 281.195312 654.367188 C 295.363281 656.273438 313.285156 656.234375 334.828125 656.234375 Z M 223.796875 545.203125 C 223.796875 566.746094 223.757812 584.667969 225.664062 598.835938 C 227.636719 613.511719 231.976562 626.761719 242.625 637.40625 L 267.417969 612.613281 C 264.371094 609.570312 261.863281 604.953125 260.414062 594.164062 C 258.898438 582.875 258.859375 567.738281 258.859375 545.203125 Z M 551.046875 545.203125 C 551.046875 567.738281 551.007812 582.875 549.492188 594.164062 C 548.039062 604.953125 545.535156 609.570312 542.488281 612.613281 L 567.28125 637.40625 C 577.929688 626.761719 582.269531 613.511719 584.242188 598.835938 C 586.148438 584.667969 586.109375 566.746094 586.109375 545.203125 Z M 475.078125 656.234375 C 496.621094 656.234375 514.542969 656.273438 528.710938 654.367188 C 543.386719 652.394531 556.636719 648.054688 567.28125 637.40625 L 542.488281 612.613281 C 539.445312 615.660156 534.828125 618.164062 524.039062 619.617188 C 512.75 621.132812 497.613281 621.171875 475.078125 621.171875 Z M 288.078125 258.859375 C 293.074219 258.859375 297.972656 259.226562 302.75 259.933594 L 307.878906 225.246094 C 301.40625 224.292969 294.792969 223.796875 288.078125 223.796875 Z M 404.953125 153.671875 C 350.945312 153.671875 305.128906 188.550781 288.710938 236.960938 L 321.917969 248.21875 C 333.65625 213.605469 366.421875 188.734375 404.953125 188.734375 Z M 288.710938 236.960938 C 284.507812 249.359375 282.234375 262.628906 282.234375 276.390625 L 317.296875 276.390625 C 317.296875 266.507812 318.925781 257.039062 321.917969 248.21875 Z M 521.828125 223.796875 C 515.113281 223.796875 508.5 224.292969 502.03125 225.246094 L 507.15625 259.933594 C 511.933594 259.226562 516.832031 258.859375 521.828125 258.859375 Z M 404.953125 188.734375 C 443.484375 188.734375 476.25 213.605469 487.992188 248.21875 L 521.195312 236.960938 C 504.777344 188.550781 458.960938 153.671875 404.953125 153.671875 Z M 487.992188 248.21875 C 490.980469 257.039062 492.609375 266.507812 492.609375 276.390625 L 527.671875 276.390625 C 527.671875 262.628906 525.398438 249.359375 521.195312 236.960938 Z M 258.859375 545.203125 L 258.859375 465.355469 L 223.796875 465.355469 L 223.796875 545.203125 Z M 248.347656 449.289062 C 213.222656 433.941406 188.734375 398.914062 188.734375 358.203125 L 153.671875 358.203125 C 153.671875 413.34375 186.875 460.691406 234.308594 481.417969 Z M 551.046875 465.355469 L 551.046875 545.203125 L 586.109375 545.203125 L 586.109375 465.355469 Z M 621.171875 358.203125 C 621.171875 398.914062 596.683594 433.941406 561.558594 449.289062 L 575.597656 481.417969 C 623.03125 460.691406 656.234375 413.34375 656.234375 358.203125 Z M 492.609375 276.390625 L 492.609375 288.078125 L 527.671875 288.078125 L 527.671875 276.390625 Z M 282.234375 276.390625 L 282.234375 288.078125 L 317.296875 288.078125 L 317.296875 276.390625 Z M 282.234375 276.390625 "/><path style="fill:none;stroke-width:1.5;stroke-linecap:round;stroke-linejoin:round;stroke:#ff0000;stroke-opacity:1;stroke-miterlimit:4;" d="M 5 18 L 19.000001 18 " transform="matrix(23.374999,0,0,23.374999,124.453123,124.453139)"/></g></svg>